<?xml version="1.0" encoding="utf-8"?>
<!-- Generator: Adobe Illustrator 28.1.0, SVG Export Plug-In . SVG Version: 6.00 Build 0)  -->
<svg version="1.1" id="Layer_1" xmlns="http://www.w3.org/2000/svg" xmlns:xlink="http://www.w3.org/1999/xlink" x="0px" y="0px"
	 viewBox="0 0 81.91 56.1" style="enable-background:new 0 0 81.91 56.1;" xml:space="preserve">
<style type="text/css">
	.st0{fill:#FFFFFF;stroke:#231F20;stroke-width:0.5;stroke-miterlimit:10;}
	.st1{fill:#F1F2F2;}
	.st2{fill:#231F20;}
	.st3{fill:url(#SVGID_1_);}
	
		.st4{fill:url(#SVGID_00000030460467456206987610000004216381533413248649_);stroke:#231F20;stroke-width:0.5;stroke-miterlimit:10;}
	
		.st5{fill:url(#SVGID_00000003800526079358223740000008524264479015929225_);stroke:#231F20;stroke-width:0.5;stroke-miterlimit:10;}
	.st6{fill:none;stroke:#231F20;stroke-width:0.25;stroke-miterlimit:10;}
</style>
<path class="st0" d="M2.8,45.73c0.17-0.63,1.68-0.72,2.32-0.77c8.01-0.66,12.67-6.25,20.91-6.97c4.19-0.36,3,1.08,12.91,2.84
	c13.18,2.34,20.22,0.66,21.94,4.39c0.83,1.79,0.03,3.99-0.77,5.16c-1.43,2.08-4.03,2.61-9.81,3.1c-7.82,0.65-11.72,0.98-15.49,0.52
	c-8.49-1.05-8.16-3.21-15.23-3.36c-3.94-0.08-6.32,0.54-10.32-0.77C6.09,48.82,2.52,46.77,2.8,45.73z"/>
<path class="st0" d="M21.17,30.8c-8.96-0.02-12.71,4.91-16,2.84c-2.27-1.42-3.02-5.35-1.81-7.74c1.41-2.79,5.34-3.23,9.29-3.61
	c5.46-0.53,7.57,0.5,14.97,1.29c6.95,0.74,12.34,0.6,14.97,0.52c4.09-0.12,7.37-0.51,13.94-1.29c12.07-1.43,16.53-2.54,19.62,0.26
	c2.04,1.86,2.58,4.39,2.58,4.39c0.09,0.44,0.68,3.22-0.77,5.42c-1.76,2.66-5.52,3.01-12.13,3.61c-1.64,0.15-2.85,0.26-4.9,0.26
	c-5.41,0-8.86-0.72-21.17-3.1c-5.24-1.01-7.96-1.52-11.87-2.06C24.16,31.06,22.3,30.8,21.17,30.8z"/>
<g>
	<path class="st1" d="M18.32,6.21c1.73-2.23,6.14-3.66,10.2-4c4.36-0.36,5.69,0.23,14.19,1.88c4.59,0.89,9.92,1.3,14.79,0.72
		c3.68-0.44,6.87-1.41,10.5-1.9c3.64-0.49,8.33-0.35,10.38,0.99c0.72,0.47,1.02,1.06,0.65,1.59c-0.73,1.05-3.66,1.59-4.78,2.58
		c-2.04,1.82,2.98,3.89,1.75,5.83c-0.83,1.3-4.21,2.04-7.42,2.24c-3.21,0.2-6.52,0.03-9.71,0.26c-6.73,0.5-12.5,2.78-19.32,2.6
		c-5.48-0.15-9.31-1.93-14.96-4.37c-4.54-1.97-5.68-3.23-6.19-3.98C17.96,10.01,16.78,8.19,18.32,6.21z"/>
	<g>
		<path class="st2" d="M18.5,6.4c2.7-3.27,8.18-4.01,12.16-4.02c3.27-0.01,6.52,0.89,9.71,1.53c5.21,1.04,10.46,1.75,15.78,1.31
			c5.42-0.45,10.61-2.37,16.08-2.29c1.15,0.02,2.31,0.09,3.44,0.31c0.71,0.14,3.86,0.79,3.02,2.24c-0.41,0.71-1.91,1.04-2.61,1.33
			c-0.7,0.29-1.48,0.56-2.04,1.09c-2.41,2.24,3.83,4.53,1.11,6.44c-2.08,1.47-5.38,1.52-7.81,1.61c-2.99,0.11-5.98-0.02-8.96,0.24
			c-5.28,0.45-10.39,2.08-15.68,2.48c-3.03,0.23-6.06,0.02-9-0.78c-2.95-0.8-5.75-2.06-8.55-3.28c-2.81-1.22-9.59-3.97-6.62-8.24
			c0.19-0.28-0.26-0.54-0.46-0.27c-1.95,2.79,0.2,5.41,2.59,6.88c2.34,1.43,4.95,2.43,7.47,3.48c2.57,1.07,5.2,2.04,7.95,2.49
			c5.69,0.93,11.26-0.39,16.83-1.44c3.25-0.61,6.48-0.93,9.78-0.97c2.98-0.03,5.99,0.04,8.94-0.49c1.39-0.25,4.29-0.71,4.74-2.42
			c0.32-1.22-0.95-2.29-1.63-3.13c-0.71-0.88-1.13-1.73,0.01-2.48c0.87-0.58,1.92-0.85,2.87-1.28c1.43-0.65,2.59-1.88,0.85-3.04
			c-1.63-1.1-3.98-1.22-5.88-1.28c-2.75-0.08-5.46,0.32-8.15,0.86c-3.21,0.65-6.39,1.36-9.68,1.51c-3.15,0.15-6.33-0.04-9.45-0.5
			C40.7,3.6,36.09,2.02,31.38,1.86c-2.2-0.08-4.46,0.17-6.6,0.69c-2.39,0.58-5.04,1.52-6.65,3.47C17.91,6.28,18.29,6.66,18.5,6.4z"
			/>
	</g>
</g>
<g>
	
		<linearGradient id="SVGID_1_" gradientUnits="userSpaceOnUse" x1="11.0511" y1="62.528" x2="44.7864" y2="62.528" gradientTransform="matrix(1.8267 0 0 0.5737 -2.6353 -25.3166)">
		<stop  offset="0" style="stop-color:#E1E31D;stop-opacity:0"/>
		<stop  offset="0.4626" style="stop-color:#FEDB29"/>
	</linearGradient>
	<path class="st3" d="M18.32,6.21c1.73-2.23,6.14-3.66,10.2-4c4.36-0.36,5.69,0.23,14.19,1.88c4.59,0.89,9.92,1.3,14.79,0.72
		c3.68-0.44,6.87-1.41,10.5-1.9c3.64-0.49,8.33-0.35,10.38,0.99c0.72,0.47,1.02,1.06,0.65,1.59c-0.73,1.05-3.66,1.59-4.78,2.58
		c-2.04,1.82,2.98,3.89,1.75,5.83c-0.83,1.3-4.21,2.04-7.42,2.24c-3.21,0.2-6.52,0.03-9.71,0.26c-6.73,0.5-12.5,2.78-19.32,2.6
		c-5.48-0.15-9.31-1.93-14.96-4.37c-4.54-1.97-5.68-3.23-6.19-3.98C17.96,10.01,16.78,8.19,18.32,6.21z"/>
	<g>
		<path class="st2" d="M18.5,6.4c2.7-3.27,8.18-4.01,12.16-4.02c3.27-0.01,6.52,0.89,9.71,1.53c5.21,1.04,10.46,1.75,15.78,1.31
			c5.42-0.45,10.61-2.37,16.08-2.29c1.15,0.02,2.31,0.09,3.44,0.31c0.71,0.14,3.86,0.79,3.02,2.24c-0.41,0.71-1.91,1.04-2.61,1.33
			c-0.7,0.29-1.48,0.56-2.04,1.09c-2.41,2.24,3.83,4.53,1.11,6.44c-2.08,1.47-5.38,1.52-7.81,1.61c-2.99,0.11-5.98-0.02-8.96,0.24
			c-5.28,0.45-10.39,2.08-15.68,2.48c-3.03,0.23-6.06,0.02-9-0.78c-2.95-0.8-5.75-2.06-8.55-3.28c-2.81-1.22-9.59-3.97-6.62-8.24
			c0.19-0.28-0.26-0.54-0.46-0.27c-1.95,2.79,0.2,5.41,2.59,6.88c2.34,1.43,4.95,2.43,7.47,3.48c2.57,1.07,5.2,2.04,7.95,2.49
			c5.69,0.93,11.26-0.39,16.83-1.44c3.25-0.61,6.48-0.93,9.78-0.97c2.98-0.03,5.99,0.04,8.94-0.49c1.39-0.25,4.29-0.71,4.74-2.42
			c0.32-1.22-0.95-2.29-1.63-3.13c-0.71-0.88-1.13-1.73,0.01-2.48c0.87-0.58,1.92-0.85,2.87-1.28c1.43-0.65,2.59-1.88,0.85-3.04
			c-1.63-1.1-3.98-1.22-5.88-1.28c-2.75-0.08-5.46,0.32-8.15,0.86c-3.21,0.65-6.39,1.36-9.68,1.51c-3.15,0.15-6.33-0.04-9.45-0.5
			C40.7,3.6,36.09,2.02,31.38,1.86c-2.2-0.08-4.46,0.17-6.6,0.69c-2.39,0.58-5.04,1.52-6.65,3.47C17.91,6.28,18.29,6.66,18.5,6.4z"
			/>
	</g>
</g>
<linearGradient id="SVGID_00000181058085575372129920000003737796882885087910_" gradientUnits="userSpaceOnUse" x1="2.7807" y1="46.0661" x2="61.2195" y2="46.0661">
	<stop  offset="0.2183" style="stop-color:#2584C6"/>
	<stop  offset="1" style="stop-color:#2584C6;stop-opacity:0"/>
</linearGradient>
<path style="fill:url(#SVGID_00000181058085575372129920000003737796882885087910_);stroke:#231F20;stroke-width:0.5;stroke-miterlimit:10;" d="
	M2.8,45.73c0.17-0.63,1.68-0.72,2.32-0.77c8.01-0.66,12.67-6.25,20.91-6.97c4.19-0.36,3,1.08,12.91,2.84
	c13.18,2.34,20.22,0.66,21.94,4.39c0.83,1.79,0.03,3.99-0.77,5.16c-1.43,2.08-4.03,2.61-9.81,3.1c-7.82,0.65-11.72,0.98-15.49,0.52
	c-8.49-1.05-8.16-3.21-15.23-3.36c-3.94-0.08-6.32,0.54-10.32-0.77C6.09,48.82,2.52,46.77,2.8,45.73z"/>
<linearGradient id="SVGID_00000162348909961124229150000007220907625440349830_" gradientUnits="userSpaceOnUse" x1="2.7807" y1="29.032" x2="78.9213" y2="29.032">
	<stop  offset="0" style="stop-color:#7F1617"/>
	<stop  offset="1" style="stop-color:#F47958;stop-opacity:0"/>
</linearGradient>
<path style="fill:url(#SVGID_00000162348909961124229150000007220907625440349830_);stroke:#231F20;stroke-width:0.5;stroke-miterlimit:10;" d="
	M21.17,30.8c-8.96-0.02-12.71,4.91-16,2.84c-2.27-1.42-3.02-5.35-1.81-7.74c1.41-2.79,5.34-3.23,9.29-3.61
	c5.46-0.53,7.57,0.5,14.97,1.29c6.95,0.74,12.34,0.6,14.97,0.52c4.09-0.12,7.37-0.51,13.94-1.29c12.07-1.43,16.53-2.54,19.62,0.26
	c2.04,1.86,2.58,4.39,2.58,4.39c0.09,0.44,0.68,3.22-0.77,5.42c-1.76,2.66-5.52,3.01-12.13,3.61c-1.64,0.15-2.85,0.26-4.9,0.26
	c-5.41,0-8.86-0.72-21.17-3.1c-5.24-1.01-7.96-1.52-11.87-2.06C24.16,31.06,22.3,30.8,21.17,30.8z"/>
<g>
	<g>
		<path class="st2" d="M27.36,10.1c1.93,0,1.93-3,0-3C25.43,7.1,25.43,10.1,27.36,10.1L27.36,10.1z"/>
	</g>
</g>
<g>
	<g>
		<path class="st2" d="M44.14,15.52c1.93,0,1.93-3,0-3C42.21,12.52,42.2,15.52,44.14,15.52L44.14,15.52z"/>
	</g>
</g>
<g>
	<g>
		<path class="st2" d="M65.56,9.33c1.93,0,1.93-3,0-3C63.63,6.33,63.63,9.33,65.56,9.33L65.56,9.33z"/>
	</g>
</g>
<g>
	<g>
		<path class="st2" d="M67.11,27.91c1.93,0,1.93-3,0-3C65.18,24.91,65.18,27.91,67.11,27.91L67.11,27.91z"/>
	</g>
</g>
<g>
	<g>
		<path class="st2" d="M46.72,32.3c1.93,0,1.93-3,0-3C44.79,29.3,44.79,32.3,46.72,32.3L46.72,32.3z"/>
	</g>
</g>
<g>
	<g>
		<path class="st2" d="M17.29,27.4c1.93,0,1.93-3,0-3C15.36,24.4,15.36,27.4,17.29,27.4L17.29,27.4z"/>
	</g>
</g>
<g>
	<g>
		<path class="st2" d="M18.33,48.56c1.93,0,1.93-3,0-3C16.4,45.56,16.39,48.56,18.33,48.56L18.33,48.56z"/>
	</g>
</g>
<g>
	<g>
		<path class="st2" d="M34.59,43.66c1.93,0,1.93-3,0-3C32.66,40.66,32.65,43.66,34.59,43.66L34.59,43.66z"/>
	</g>
</g>
<g>
	<g>
		<path class="st2" d="M48.01,50.63c1.93,0,1.93-3,0-3C46.08,47.63,46.08,50.63,48.01,50.63L48.01,50.63z"/>
	</g>
</g>
<path class="st6" d="M27.36,8.6l16.78,5.42L27.36,8.6z"/>
<line class="st6" x1="17.29" y1="25.9" x2="27.36" y2="8.6"/>
<line class="st6" x1="17.29" y1="25.9" x2="34.59" y2="42.16"/>
<line class="st6" x1="48.01" y1="49.13" x2="34.59" y2="42.16"/>
<line class="st6" x1="48.01" y1="49.13" x2="67.11" y2="26.41"/>
<line class="st6" x1="46.72" y1="30.8" x2="65.56" y2="7.83"/>
<line class="st6" x1="34.59" y1="42.16" x2="18.33" y2="47.06"/>
</svg>
